<?xml version="1.0" standalone="no"?>
<!DOCTYPE svg PUBLIC "-//W3C//DTD SVG 20010904//EN"
 "http://www.w3.org/TR/2001/REC-SVG-20010904/DTD/svg10.dtd">
<svg version="1.0" xmlns="http://www.w3.org/2000/svg"
 width="300.000000pt" height="300.000000pt" viewBox="0 0 300.000000 300.000000"
 preserveAspectRatio="xMidYMid meet">
<metadata>
Created by potrace 1.14, written by Peter Selinger 2001-2017
</metadata>
<g transform="translate(0.000000,300.000000) scale(0.100000,-0.100000)"
fill="#000000" stroke="none">
<path d="M1327 2971 c-27 -11 -55 -25 -64 -32 -10 -9 -49 -13 -117 -14 -139 0
-181 -24 -309 -173 -20 -24 -36 -32 -62 -33 -19 -1 -38 -2 -42 -3 -5 -1 -26
-5 -47 -10 -97 -19 -185 -91 -223 -181 -13 -32 -27 -47 -53 -59 -51 -22 -118
-82 -139 -125 -21 -41 -41 -135 -41 -194 0 -34 -8 -48 -66 -111 -84 -89 -114
-150 -114 -231 0 -33 4 -76 10 -94 6 -20 6 -39 1 -45 -20 -24 -51 -123 -51
-162 0 -59 23 -125 69 -203 28 -47 39 -76 35 -92 -38 -173 -19 -270 70 -363
37 -38 49 -59 57 -100 21 -116 89 -191 222 -243 68 -26 68 -27 108 -105 69
-132 148 -193 261 -203 39 -3 57 -11 94 -43 90 -80 169 -96 317 -67 l87 17 44
-26 c129 -76 228 -84 336 -29 55 29 66 31 128 26 49 -4 86 0 127 12 51 14 69
27 140 100 85 87 80 84 200 101 100 13 182 78 227 177 18 39 32 54 69 72 100
51 149 139 165 299 6 63 10 71 44 102 54 49 116 133 129 176 15 46 16 134 2
170 -8 22 -5 37 17 85 22 47 27 73 27 133 0 79 -13 116 -77 220 -25 41 -27 49
-17 90 6 25 11 79 12 121 1 63 -3 85 -26 131 -15 30 -47 74 -72 97 -25 23 -45
47 -46 54 -5 71 -44 156 -92 199 -28 25 -143 87 -189 102 -9 2 -30 33 -46 68
-64 137 -122 187 -240 211 -58 12 -81 23 -114 52 -22 21 -65 49 -95 62 -47 22
-64 25 -121 20 -67 -6 -91 -10 -147 -25 -25 -7 -46 -1 -122 36 -113 54 -189
64 -266 33z m246 -38 c42 -20 77 -39 77 -43 0 -13 -104 -28 -171 -25 -37 2
-91 10 -120 18 -30 8 -67 18 -83 21 l-29 7 22 15 c12 9 45 24 74 34 71 25 134
18 230 -27z m-365 -27 c5 -6 -131 -102 -175 -125 -44 -22 -144 -51 -176 -51
-15 0 -9 12 29 56 57 67 119 111 171 122 34 8 142 6 151 -2z m781 -15 c41 -22
101 -68 101 -80 0 -8 -154 -5 -213 4 -45 6 -167 54 -167 65 0 13 133 37 188
34 29 -2 70 -13 91 -23z m-678 -10 c140 -37 212 -41 309 -18 51 13 58 12 100
-9 89 -43 143 -56 270 -61 119 -6 125 -7 145 -32 92 -120 143 -166 228 -211
84 -44 90 -49 123 -110 42 -79 76 -115 182 -192 76 -56 82 -63 83 -97 0 -20 2
-43 4 -51 1 -8 6 -46 10 -85 8 -78 29 -142 72 -212 25 -40 28 -54 21 -83 -21
-91 -8 -201 40 -341 l20 -55 -40 -65 c-91 -149 -114 -212 -117 -316 -1 -22
-12 -43 -38 -71 -90 -94 -106 -121 -148 -252 -32 -100 -35 -105 -83 -121 -103
-33 -203 -92 -260 -154 -57 -60 -62 -63 -128 -74 -87 -15 -155 -46 -256 -116
l-79 -56 -102 21 c-129 27 -220 29 -308 5 -19 -5 -46 3 -100 28 -95 45 -120
50 -257 52 l-113 2 -32 39 c-89 110 -149 163 -233 203 -77 38 -86 45 -110 94
-15 28 -40 69 -57 90 -33 43 -185 162 -194 153 -4 -3 -4 -7 -2 -9 2 -2 37 -27
77 -56 40 -29 88 -72 106 -95 41 -50 80 -126 66 -126 -6 0 -41 15 -78 32 -84
41 -147 102 -163 160 -13 43 -14 53 -24 188 -9 136 -25 202 -66 282 -38 72
-40 80 -34 135 13 112 5 178 -40 306 -9 27 -17 56 -17 65 -1 10 22 52 50 95
63 96 91 168 98 257 6 66 9 72 55 121 65 67 92 115 133 235 l35 98 88 36 c123
51 176 84 231 146 45 51 50 54 123 68 91 17 171 56 259 125 36 28 68 51 71 51
3 0 39 -9 80 -19z m891 -103 c65 -14 118 -46 151 -90 28 -37 90 -149 85 -153
-6 -7 -115 49 -151 78 -43 33 -163 177 -148 177 5 0 33 -5 63 -12z m-1411 -87
c-5 -9 -30 -36 -54 -58 -60 -55 -267 -152 -267 -125 0 14 56 96 81 119 33 30
110 63 162 69 23 3 43 6 44 7 1 2 11 3 23 4 16 1 18 -2 11 -16z m1763 -226
c115 -55 162 -110 185 -213 l9 -43 -26 17 c-58 37 -140 104 -170 139 -33 37
-88 135 -76 135 4 0 39 -16 78 -35z m-2124 -32 c-18 -61 -41 -120 -65 -168
-25 -50 -100 -145 -114 -145 -13 0 -3 103 14 164 19 66 52 108 114 148 56 35
62 35 51 1z m2385 -304 c63 -70 78 -118 72 -225 -8 -134 -16 -142 -59 -52 -38
79 -46 107 -54 208 -3 36 -7 75 -10 88 -7 33 9 27 51 -19z m-2590 -96 c-11
-78 -26 -135 -42 -166 -27 -53 -96 -157 -103 -157 -25 0 -19 153 8 205 22 44
118 155 133 155 5 0 7 -17 4 -37z m2681 -336 c38 -60 63 -125 67 -174 4 -46
-13 -126 -36 -168 -10 -18 -12 -16 -25 25 -36 116 -49 182 -47 236 4 131 6
135 41 81z m-2802 -136 c33 -106 40 -166 29 -246 l-9 -60 -29 45 c-38 59 -73
163 -70 209 3 44 33 141 44 141 4 0 20 -40 35 -89z m2828 -289 c12 -44 0 -148
-20 -189 -22 -42 -118 -153 -133 -153 -10 0 -2 72 16 135 14 50 112 225 126
225 3 0 9 -8 11 -18z m-2763 -119 c39 -79 50 -122 57 -230 4 -64 3 -93 -5 -93
-16 0 -87 100 -100 142 -14 42 -13 143 2 201 5 20 11 37 13 37 2 0 17 -26 33
-57z m2571 -398 c-15 -76 -40 -124 -85 -163 -35 -32 -101 -71 -92 -55 2 4 15
42 27 83 29 93 57 146 112 212 l43 52 3 -34 c2 -19 -2 -62 -8 -95z m-225 -297
c-42 -82 -110 -140 -180 -152 -16 -3 -51 -10 -78 -15 -26 -4 -49 -5 -52 -1 -5
8 89 100 127 123 32 20 192 87 196 82 2 -2 -4 -18 -13 -37z m-1879 -30 c51
-25 85 -52 145 -117 44 -47 79 -91 79 -97 0 -14 -70 -3 -122 19 -48 20 -108
83 -145 154 -47 87 -49 86 43 41z m1495 -197 c-31 -43 -110 -110 -151 -128
-38 -16 -144 -24 -174 -14 -15 6 -4 17 55 58 41 28 90 58 109 68 33 17 171 55
179 49 2 -2 -6 -16 -18 -33z m-940 -65 c37 -13 77 -30 89 -39 21 -15 20 -16
-37 -28 -83 -18 -180 -16 -225 5 -20 10 -54 33 -75 51 l-38 34 110 0 c90 1
122 -4 176 -23z m494 -64 l70 -18 -58 -28 c-65 -30 -120 -38 -181 -24 -45 10
-169 68 -162 76 26 25 228 22 331 -6z"/>
<path d="M616 1863 c-3 -3 0 -17 6 -32 16 -39 18 -642 2 -703 l-12 -48 108 0
109 0 -12 43 c-15 47 -16 630 -3 703 l8 41 -101 0 c-55 0 -103 -2 -105 -4z"/>
<path d="M1016 1826 c10 -52 10 -659 0 -708 l-7 -38 216 0 216 0 80 80 79 79
0 234 0 235 -79 79 -79 80 -217 0 -217 0 8 -41z m352 -111 c44 -23 52 -58 52
-242 0 -183 -7 -211 -60 -233 -37 -15 -141 -14 -151 2 -7 11 -9 468 -2 481 8
13 129 7 161 -8z"/>
<path d="M1787 1831 c10 -47 10 -676 0 -718 l-7 -33 106 0 c106 0 106 0 99 23
-4 12 -10 84 -12 160 l-5 137 42 41 c23 22 46 39 52 37 11 -4 107 -277 112
-323 2 -16 4 -40 5 -52 1 -22 4 -23 120 -22 l120 0 -31 52 c-26 45 -68 146
-98 237 -8 25 -72 199 -85 232 -5 12 23 47 110 132 64 64 114 120 111 125 -3
5 -51 8 -107 8 l-101 0 -18 -41 c-11 -25 -60 -82 -125 -146 l-107 -105 5 125
c2 69 8 135 12 146 7 22 5 22 -99 21 l-106 0 7 -36z"/>
</g>
</svg>
