<?xml version="1.0" standalone="no"?>
<!DOCTYPE svg PUBLIC "-//W3C//DTD SVG 20010904//EN"
 "http://www.w3.org/TR/2001/REC-SVG-20010904/DTD/svg10.dtd">
<svg version="1.0" xmlns="http://www.w3.org/2000/svg"
 width="1434.000000pt" height="1434.000000pt" viewBox="0 0 1434.000000 1434.000000"
 preserveAspectRatio="xMidYMid meet">
<metadata>
Created by potrace 1.14, written by Peter Selinger 2001-2017
</metadata>
<g transform="translate(0.000000,1434.000000) scale(0.100000,-0.100000)"
fill="#000000" stroke="none">
<path d="M680 7190 l0 -6490 23 -5 c12 -3 2927 -4 6477 -3 l6455 3 0 6490 0
6490 -6477 3 -6478 2 0 -6490z m12685 0 l0 -6230 -6200 0 c-3410 0 -6203 0
-6207 0 -12 0 -10 12458 2 12462 5 2 2799 2 6207 1 l6198 -3 0 -6230z"/>
<path d="M6780 12291 c0 -27 -6 -34 -50 -56 -30 -15 -88 -31 -143 -40 -50 -7
-123 -18 -162 -24 -112 -17 -354 -49 -425 -56 -84 -8 -111 -15 -104 -26 16
-27 458 7 733 56 46 8 123 17 172 21 49 4 89 11 89 15 0 5 -4 9 -9 9 -5 0 -16
19 -23 42 -8 24 -28 52 -46 66 l-32 25 0 -32z"/>
<path d="M6935 12170 c28 -12 67 -12 60 0 -3 6 -23 10 -43 9 -30 0 -33 -2 -17
-9z"/>
<path d="M7040 12098 c22 -31 30 -52 30 -85 0 -53 -32 -120 -65 -135 -20 -9
-31 -6 -71 21 -56 37 -71 37 -224 11 -115 -19 -340 -56 -520 -85 -52 -8 -138
-19 -190 -25 -108 -12 -140 -19 -140 -30 0 -37 456 -1 817 66 109 19 150 14
187 -25 51 -53 43 -132 -21 -207 -55 -63 -245 -153 -398 -189 -242 -55 -628
-170 -646 -191 -10 -12 -3 -14 45 -14 31 0 72 6 91 14 19 8 56 18 82 21 26 4
77 13 113 20 36 8 110 24 165 35 222 46 375 94 475 147 65 35 120 79 120 96 0
5 9 20 20 34 12 16 20 41 20 64 0 37 2 40 59 68 32 17 73 45 91 63 41 41 80
127 80 176 -1 76 -77 192 -127 192 -23 0 -23 0 7 -42z"/>
<path d="M5818 12083 c6 -2 18 -2 25 0 6 3 1 5 -13 5 -14 0 -19 -2 -12 -5z"/>
<path d="M5660 11170 c-45 -24 -51 -30 -35 -35 58 -19 65 -25 65 -55 0 -48
-24 -93 -69 -132 -39 -33 -69 -45 -165 -65 -93 -20 -24 -50 76 -34 63 11 116
41 168 95 41 44 67 140 48 182 -9 19 -8 28 5 42 10 10 17 22 17 25 0 16 -59 3
-110 -23z"/>
<path d="M6010 10780 c-68 -36 -133 -100 -168 -165 -24 -45 -26 -60 -26 -160
0 -101 3 -114 27 -160 116 -212 377 -264 553 -111 29 26 62 68 79 102 28 55
30 67 30 169 0 95 -3 116 -24 158 -24 49 -126 157 -148 157 -7 0 -27 9 -45 20
-27 16 -50 20 -128 19 -85 0 -101 -3 -150 -29z m234 -45 c47 -27 86 -92 86
-141 0 -47 -55 -132 -96 -149 -148 -61 -283 79 -214 222 42 88 140 118 224 68z"/>
<path d="M8016 10784 c-121 -52 -196 -143 -216 -263 -23 -137 15 -250 113
-336 91 -80 245 -113 337 -73 19 8 46 20 60 25 39 16 116 89 144 137 37 64 53
171 36 255 -7 36 -21 77 -31 90 -11 13 -19 29 -19 35 0 6 -22 31 -50 57 -105
96 -252 125 -374 73z m221 -54 c116 -86 88 -255 -48 -291 -56 -15 -126 1 -157
35 -21 24 -52 97 -52 125 0 30 40 112 58 118 9 4 28 15 41 25 39 29 109 24
158 -12z"/>
<path d="M4593 10789 c-27 -8 -33 -15 -38 -47 -3 -20 -10 -57 -16 -82 -11 -43
-28 -170 -49 -370 -11 -95 -4 -286 10 -305 4 -5 11 -23 15 -40 6 -28 9 -24 29
45 36 120 56 159 131 249 27 33 101 102 124 115 107 64 131 79 141 91 7 8 19
15 26 15 7 0 22 17 33 38 17 34 18 41 5 71 -19 46 -19 165 1 181 20 16 19 36
-1 44 -25 10 -375 5 -411 -5z"/>
<path d="M7919 9105 c-3 -2 -101 -7 -219 -10 -118 -3 -234 -11 -257 -17 -51
-13 -643 -6 -968 12 -121 6 -233 9 -250 6 -38 -7 -78 -58 -78 -98 0 -47 52
-92 136 -117 40 -11 90 -21 112 -21 22 -1 76 -7 120 -15 143 -26 572 -39 877
-27 294 12 593 43 673 68 69 23 105 63 105 119 0 57 -7 73 -41 90 -26 14 -198
22 -210 10z"/>
<path d="M2105 5888 c-3 -7 -4 -663 -3 -1458 l3 -1445 358 -3 357 -2 -2 1457
-3 1458 -353 3 c-277 2 -354 0 -357 -10z"/>
<path d="M4502 5888 c-9 -9 -12 -344 -12 -1444 0 -788 3 -1439 6 -1448 6 -14
69 -16 619 -16 352 0 647 4 692 10 201 26 329 59 465 119 26 12 51 21 55 21
34 0 318 191 378 254 192 204 333 465 375 696 6 36 16 87 22 114 14 66 13 426
-1 501 -7 33 -17 85 -23 115 -39 203 -177 473 -319 624 -174 187 -378 314
-619 386 -233 70 -351 79 -1080 79 -412 1 -549 -2 -558 -11z m1092 -608 c115
-11 215 -29 281 -52 120 -42 245 -124 311 -205 21 -27 45 -54 52 -62 27 -28
93 -178 114 -261 19 -71 23 -113 23 -255 0 -205 -16 -284 -83 -425 -39 -81
-59 -108 -137 -186 -73 -73 -107 -98 -176 -132 -144 -71 -217 -84 -502 -91
-137 -3 -251 -3 -253 1 -6 10 -5 1658 1 1668 8 12 233 12 369 0z"/>
<path d="M8657 5893 c-4 -3 -7 -660 -7 -1460 l0 -1453 360 0 360 0 0 620 c0
367 4 620 9 620 10 0 129 -151 326 -415 66 -88 122 -162 125 -165 3 -3 18 -23
35 -45 16 -22 31 -42 35 -45 3 -3 75 -97 159 -210 85 -113 157 -207 160 -210
3 -3 31 -38 60 -77 l55 -73 438 0 c241 0 438 3 438 7 0 7 -93 129 -204 268
-45 55 -94 118 -111 139 -66 86 -161 208 -415 530 -146 185 -300 382 -344 437
-68 87 -77 103 -68 122 5 12 59 83 118 157 60 74 183 230 273 345 90 116 167
212 171 215 3 3 19 23 35 45 17 22 32 42 35 45 3 3 71 88 150 190 79 102 182
231 227 287 46 56 83 109 83 118 0 13 -47 15 -417 13 l-417 -3 -56 -70 c-31
-38 -133 -171 -226 -295 -259 -342 -476 -629 -523 -690 -24 -30 -61 -81 -84
-112 -23 -32 -48 -58 -54 -58 -10 0 -13 132 -15 613 l-3 612 -351 3 c-193 1
-353 -1 -357 -5z"/>
<path d="M3524 3715 c-119 -29 -225 -111 -272 -212 -24 -52 -27 -69 -27 -168
0 -99 3 -116 27 -165 29 -61 113 -147 168 -173 81 -38 124 -47 225 -47 137 0
213 26 298 101 132 116 165 308 81 472 -26 50 -105 127 -158 154 -102 52 -229
66 -342 38z"/>
<path d="M7698 3715 c-161 -44 -263 -152 -293 -311 -36 -194 79 -381 271 -439
66 -20 237 -20 295 0 116 41 201 113 247 213 24 50 27 69 27 157 -1 88 -4 108
-29 162 -32 70 -106 147 -176 183 -95 49 -238 63 -342 35z"/>
<path d="M11748 3715 c-120 -33 -213 -108 -263 -210 -56 -114 -44 -288 27
-387 86 -119 192 -168 364 -168 148 0 241 37 324 127 69 75 94 144 94 258 0
114 -26 183 -94 258 -83 91 -198 138 -333 136 -40 -1 -93 -7 -119 -14z"/>
<path d="M5435 2161 c-225 -37 -375 -211 -375 -436 0 -175 88 -315 241 -388
201 -95 424 -61 571 85 53 53 75 88 108 176 8 20 13 76 13 136 -1 91 -4 108
-31 166 -51 112 -139 195 -254 238 -65 24 -197 35 -273 23z m166 -183 c58 -19
115 -67 145 -121 25 -45 29 -63 29 -132 0 -88 -14 -125 -69 -183 -50 -54 -100
-74 -177 -74 -109 1 -179 45 -229 143 -15 28 -20 58 -20 116 0 68 4 85 30 130
61 107 183 158 291 121z"/>
<path d="M9845 2160 c-160 -28 -292 -137 -344 -285 -19 -54 -22 -80 -19 -167
2 -73 9 -115 22 -143 10 -22 23 -51 30 -65 19 -42 119 -134 171 -159 72 -35
82 -38 166 -51 132 -21 277 16 374 96 25 20 45 42 45 50 0 12 -102 115 -122
123 -5 2 -22 -8 -36 -22 -51 -47 -111 -71 -182 -70 -74 1 -124 19 -175 65 -60
52 -80 101 -80 193 0 88 22 144 73 193 42 39 126 72 183 72 57 0 141 -35 178
-74 14 -15 29 -22 39 -19 23 9 122 104 122 118 0 13 -53 64 -93 89 -80 50
-241 75 -352 56z"/>
<path d="M2067 2149 c-16 -13 -17 -43 -15 -429 l3 -415 102 -3 102 -3 3 113 3
113 140 6 c177 7 224 22 307 97 130 117 109 369 -38 462 -81 51 -136 61 -373
67 -173 4 -220 2 -234 -8z m375 -170 c66 -14 101 -34 122 -69 23 -39 21 -105
-5 -141 -35 -49 -66 -59 -189 -59 l-110 0 0 133 c0 74 3 137 7 140 10 11 117
8 175 -4z"/>
<path d="M3597 2149 c-16 -13 -17 -43 -15 -429 l3 -415 102 -3 102 -3 3 113 3
113 81 3 82 3 79 -113 79 -113 113 -3 c89 -2 112 0 108 10 -2 7 -41 66 -86
131 -79 115 -90 137 -72 137 4 0 28 18 53 40 65 56 92 123 91 225 -1 152 -70
243 -220 291 -68 22 -480 32 -506 13z m375 -170 c101 -21 138 -60 138 -143 0
-49 -24 -87 -70 -111 -42 -22 -229 -33 -241 -14 -10 16 -12 238 -3 263 7 19
95 22 176 5z"/>
<path d="M6751 2146 c-7 -9 -11 -41 -9 -83 l3 -68 125 -2 c69 -2 136 -5 148
-8 l24 -6 -4 -217 c-3 -228 -7 -248 -52 -284 -43 -35 -135 -15 -181 38 -30 35
-48 30 -91 -23 -21 -27 -42 -49 -46 -51 -19 -9 -6 -52 23 -76 89 -75 223 -103
342 -72 73 19 109 39 141 77 59 70 60 76 64 432 2 243 0 332 -9 343 -17 21
-461 21 -478 0z"/>
<path d="M8078 2153 c-17 -4 -18 -33 -18 -429 l0 -424 333 2 332 3 3 74 c2 53
-1 77 -10 83 -7 4 -107 8 -222 7 -115 0 -213 4 -218 9 -5 5 -8 44 -6 88 l3 79
190 5 190 5 3 78 3 77 -190 0 c-220 0 -205 -8 -199 110 l3 65 220 5 220 5 3
66 c5 104 22 99 -326 98 -163 -1 -305 -3 -314 -6z"/>
<path d="M10972 2148 c-17 -17 -16 -158 1 -159 6 0 62 0 122 1 61 0 116 -3
122 -8 10 -6 13 -90 15 -343 l3 -334 103 -3 102 -3 0 334 c0 264 3 337 13 345
8 7 67 13 138 14 l124 3 0 73 c0 54 -4 75 -15 82 -23 15 -713 13 -728 -2z"/>
</g>
</svg>
